<svg width="30" height="30" viewBox="0 0 30 30" fill="none" xmlns="http://www.w3.org/2000/svg">
<path d="M20.6235 0C19.0241 0.110624 17.1548 1.13437 16.0654 2.46749C15.0717 3.67685 14.2542 5.47309 14.5729 7.21871C16.3204 7.27308 18.126 6.22496 19.1723 4.86935C20.151 3.60748 20.8916 1.82249 20.6235 0Z" fill="black"/>
<path d="M26.9442 10.0649C25.4085 8.13928 23.2504 7.02179 21.2123 7.02179C18.5217 7.02179 17.3836 8.30991 15.5142 8.30991C13.5867 8.30991 12.1224 7.02554 9.7955 7.02554C7.50989 7.02554 5.07616 8.42241 3.53304 10.8111C1.36368 14.1749 1.73492 20.4992 5.25053 25.8861C6.50865 27.8136 8.18864 29.981 10.3861 29.9998C12.3417 30.0185 12.893 28.7454 15.5423 28.7323C18.1917 28.7173 18.6942 30.0167 20.6461 29.996C22.8454 29.9792 24.6173 27.5773 25.8754 25.6498C26.7773 24.268 27.1129 23.5723 27.8123 22.0123C22.7254 20.0755 21.9098 12.8418 26.9442 10.0649Z" fill="black"/>
</svg>
