<svg width="50" height="50" viewBox="0 0 50 50" fill="none" xmlns="http://www.w3.org/2000/svg">
<g clip-path="url(#clip0)">
<path d="M48.3365 11.4544C47.3384 10.4087 45.9601 9.79086 44.3916 9.79086H36.5019V9.6958C36.5019 8.50759 36.0266 7.36691 35.2186 6.60645C34.4106 5.79847 33.3175 5.32318 32.1293 5.32318H17.8707C16.635 5.32318 15.5418 5.79847 14.7338 6.60645C13.9259 7.41443 13.4506 8.50759 13.4506 9.6958V9.79086H5.60837C4.03992 9.79086 2.6616 10.4087 1.6635 11.4544C0.665399 12.4525 0 13.8783 0 15.3992V39.0684C0 40.6368 0.617871 42.0152 1.6635 43.0133C2.6616 44.0114 4.08745 44.6768 5.60837 44.6768H44.3916C45.9601 44.6768 47.3384 44.0589 48.3365 43.0133C49.3346 42.0152 50 40.5893 50 39.0684V15.3992C50 13.8308 49.3821 12.4525 48.3365 11.4544ZM47.5285 39.0684H47.481C47.481 39.9239 47.1483 40.6844 46.5779 41.2547C46.0076 41.8251 45.2472 42.1577 44.3916 42.1577H5.60837C4.75285 42.1577 3.9924 41.8251 3.42205 41.2547C2.85171 40.6844 2.51901 39.9239 2.51901 39.0684V15.3992C2.51901 14.5437 2.85171 13.7832 3.42205 13.2129C3.9924 12.6426 4.75285 12.3099 5.60837 12.3099H14.7814C15.4943 12.3099 16.0646 11.7395 16.0646 11.0266V9.64827C16.0646 9.12546 16.2548 8.65017 16.5875 8.31748C16.9202 7.98478 17.3954 7.79466 17.9183 7.79466H32.1293C32.6521 7.79466 33.1274 7.98478 33.4601 8.31748C33.7928 8.65017 33.9829 9.12546 33.9829 9.64827V11.0266C33.9829 11.7395 34.5532 12.3099 35.2662 12.3099H44.4392C45.2947 12.3099 46.0551 12.6426 46.6255 13.2129C47.1958 13.7832 47.5285 14.5437 47.5285 15.3992V39.0684Z" fill="#F9F6F0"/>
<path d="M25.0006 15.5418C21.7687 15.5418 18.8219 16.8726 16.7306 18.9639C14.5919 21.1026 13.3086 24.0019 13.3086 27.2338C13.3086 30.4658 14.6394 33.4125 16.7306 35.5038C18.8694 37.6426 21.7687 38.9258 25.0006 38.9258C28.2326 38.9258 31.1793 37.595 33.2706 35.5038C35.4094 33.365 36.6926 30.4658 36.6926 27.2338C36.6926 24.0019 35.3618 21.0551 33.2706 18.9639C31.1793 16.8726 28.2326 15.5418 25.0006 15.5418ZM31.4645 33.7452C29.801 35.3612 27.5196 36.4068 25.0006 36.4068C22.4816 36.4068 20.2002 35.3612 18.5367 33.7452C16.8732 32.0817 15.8751 29.8004 15.8751 27.2814C15.8751 24.7623 16.9208 22.481 18.5367 20.8175C20.2002 19.154 22.4816 18.1559 25.0006 18.1559C27.5196 18.1559 29.801 19.2015 31.4645 20.8175C33.128 22.481 34.1261 24.7623 34.1261 27.2814C34.1736 29.8004 33.128 32.0817 31.4645 33.7452Z" fill="#F9F6F0"/>
<path d="M41.9224 20.1521C43.2086 20.1521 44.2513 19.1094 44.2513 17.8232C44.2513 16.537 43.2086 15.4943 41.9224 15.4943C40.6362 15.4943 39.5935 16.537 39.5935 17.8232C39.5935 19.1094 40.6362 20.1521 41.9224 20.1521Z" fill="#F9F6F0"/>
</g>
<defs>
<clipPath id="clip0">
<rect width="50" height="50" fill="white"/>
</clipPath>
</defs>
</svg>
