<svg width="50" height="50" viewBox="0 0 50 50" fill="none" xmlns="http://www.w3.org/2000/svg">
<g clip-path="url(#clip0)">
<path d="M37.1223 40.1814C45.3988 39.8487 49.0775 36.0817 49.0775 31.4717C49.0775 27.4674 46.2987 24.0981 40.1435 23.0633C40.1709 21.574 40.173 20.1374 40.173 18.7962H0.921875C0.921875 27.5658 0.932021 40.3042 8.81085 46.3883C4.02938 46.7546 0.921875 47.3369 0.921875 47.9923C0.921875 49.1022 9.7087 50 20.5479 50C31.3871 50 40.173 49.1022 40.173 47.9923C40.173 47.3369 37.0654 46.7536 32.285 46.3883C34.4236 44.7377 35.987 42.6011 37.1223 40.1814ZM39.9974 26.8769C43.4509 27.6774 44.0677 29.3706 44.0282 31.563C43.9845 34.0527 43.2632 35.7378 38.5477 36.3181C39.4009 33.2877 39.8047 30.0341 39.9974 26.8769ZM5.65972 21.8398H11.7956C9.0452 29.956 13.6857 42.7979 13.6846 42.7979C3.65298 35.1088 5.65972 21.8398 5.65972 21.8398Z" fill="#F9F6F0"/>
<path d="M23.7594 13.5064C24.5396 6.4372 40.1471 9.97385 36.8945 0.796427C36.3974 -0.606665 34.1502 -0.00200678 34.6524 1.41427C36.0788 5.43789 30.6592 5.92791 27.8997 6.85012C24.5852 7.95798 21.8419 9.81051 21.4341 13.5064C21.2697 14.9958 23.5971 14.9795 23.7594 13.5064Z" fill="#F9F6F0"/>
<path d="M34.8376 8.55958C31.794 9.27685 29.0121 10.5805 28.0635 13.7803C27.6364 15.222 29.8806 15.8327 30.3057 14.3982C31.3526 10.8646 35.9941 10.8057 38.9576 9.94543C42.1401 9.02119 43.9612 6.81662 43.5239 3.43216C43.3332 1.96617 41.0079 1.9479 41.1986 3.43216C41.7272 7.52476 37.9613 7.82202 34.8376 8.55958Z" fill="#F9F6F0"/>
</g>
<defs>
<clipPath id="clip0">
<rect width="50" height="50" fill="white"/>
</clipPath>
</defs>
</svg>
