<svg width="40" height="41" viewBox="0 0 40 41" fill="none" xmlns="http://www.w3.org/2000/svg">
<g clip-path="url(#clip0)">
<path d="M32.8567 20.5001C32.0677 20.5001 31.4281 21.1396 31.4281 21.9286V36.2141C31.4281 37.0031 30.7885 37.6427 29.9995 37.6427H4.28566C3.49666 37.6427 2.85708 37.0031 2.85708 36.2141V7.64308C2.85708 6.85408 3.49666 6.2145 4.28566 6.2145H21.4283C22.2173 6.2145 22.8569 5.57491 22.8569 4.78592C22.8569 3.99692 22.2173 3.35742 21.4283 3.35742H4.28566C1.91875 3.35742 0 5.27617 0 7.64308V36.2141C0 38.581 1.91875 40.4998 4.28566 40.4998H29.9996C32.3665 40.4998 34.2853 38.581 34.2853 36.2141V21.9285C34.2853 21.1396 33.6457 20.5001 32.8567 20.5001Z" fill="#F9F6F0"/>
<path d="M38.3989 2.10232C37.3732 1.07644 35.9819 0.500221 34.5312 0.500389C33.0797 0.496204 31.6871 1.07343 30.6642 2.10324L11.8472 20.9186C11.6911 21.0759 11.5733 21.2671 11.5029 21.4772L8.64587 30.0485C8.39652 30.7971 8.80123 31.606 9.54979 31.8552C9.69502 31.9036 9.84711 31.9283 10.0001 31.9285C10.1535 31.9282 10.3059 31.9036 10.4515 31.8557L19.0229 28.9986C19.2334 28.9283 19.4246 28.8099 19.5814 28.6529L38.3983 9.83601C40.534 7.70055 40.5343 4.23803 38.3989 2.10232ZM36.3783 7.8174L17.8071 26.3886L12.2586 28.2414L14.1057 22.7L32.6841 4.12888C33.7054 3.10953 35.3598 3.11121 36.3792 4.13257C36.8661 4.62048 37.1405 5.28099 37.1426 5.97029C37.1443 6.66328 36.8692 7.32823 36.3783 7.8174Z" fill="#F9F6F0"/>
</g>
<defs>
<clipPath id="clip0">
<rect width="40" height="40" fill="white" transform="translate(0 0.5)"/>
</clipPath>
</defs>
</svg>
