<svg width="27" height="49" viewBox="0 0 27 49" fill="none" xmlns="http://www.w3.org/2000/svg">
<g clip-path="url(#clip0)">
<path d="M20.2537 5.58841e-05C21.6176 5.58841e-05 23.0109 0.0693048 24.3748 0.124704C25.2694 0.124704 26.164 0.277051 27 0.374V8.17142H23.5535C22.8789 8.17142 22.1896 8.17142 21.5149 8.17142C19.3297 8.17142 17.7165 9.01626 17.5991 11.5923C17.5258 13.462 17.4818 17.5616 17.4818 17.7832H26.604C26.164 20.7747 25.7534 23.6555 25.3134 26.5501H17.4818L17.3058 48.4743H7.68495L7.86095 26.5362H0L0.0733297 17.8109H7.97827V17.1738C7.97827 15.4149 7.97827 13.6559 7.97827 11.897C7.98561 10.7784 8.0886 9.66217 8.28626 8.55922C8.50191 7.25834 8.9905 6.01123 9.72337 4.89105C10.4562 3.77088 11.4186 2.80021 12.554 2.03597C14.586 0.703453 17.0025 -0.00725776 19.4764 5.58841e-05H20.2537Z" fill="#C4AE78"/>
</g>
<defs>
<clipPath id="clip0">
<rect width="27" height="48.4881" fill="white"/>
</clipPath>
</defs>
</svg>
