<svg width="30" height="31" viewBox="0 0 30 31" fill="none" xmlns="http://www.w3.org/2000/svg">
<g clip-path="url(#clip0)">
<path d="M26.25 0.374634H3.75C1.68187 0.374634 0 2.05651 0 4.12463V26.6246C0 28.6928 1.68187 30.3746 3.75 30.3746H26.25C28.3181 30.3746 30 28.6928 30 26.6246V4.12463C30 2.05651 28.3181 0.374634 26.25 0.374634Z" fill="#1976D2"/>
<path d="M25.3125 15.3746H20.625V11.6246C20.625 10.5896 21.465 10.6871 22.5 10.6871H24.375V5.99963H20.625C17.5181 5.99963 15 8.51776 15 11.6246V15.3746H11.25V20.0621H15V30.3746H20.625V20.0621H23.4375L25.3125 15.3746Z" fill="#FAFAFA"/>
</g>
<defs>
<clipPath id="clip0">
<rect width="30" height="30" fill="white" transform="translate(0 0.374634)"/>
</clipPath>
</defs>
</svg>
