<svg width="30" height="30" viewBox="0 0 30 30" fill="none" xmlns="http://www.w3.org/2000/svg">
<g clip-path="url(#clip0)">
<path d="M29.7585 12.2234C29.8919 12.2234 30 12.3315 30 12.4648V15C30 15.9489 29.9119 16.8766 29.7428 17.7766C28.4352 24.7674 22.2764 30.0505 14.8942 29.9996C6.61088 29.9425 -0.0183019 23.2496 3.79615e-05 14.9662C0.0182606 6.69762 6.72713 0 15 0C19.0531 0 22.7305 1.60793 25.4305 4.2198C25.528 4.31408 25.5305 4.46947 25.4346 4.56533L21.848 8.15191C21.7557 8.24426 21.6065 8.24666 21.5119 8.1566C19.8173 6.54357 17.5245 5.55328 15 5.55328C9.78683 5.55328 5.58889 9.72141 5.55349 14.9344C5.51793 20.1817 9.76105 24.4467 15 24.4467C19.2507 24.4467 22.8459 21.6386 24.0314 17.7766H15.2414C15.1081 17.7766 15 17.6685 15 17.5352V12.4648C15 12.3314 15.1081 12.2233 15.2414 12.2233H29.7585V12.2234Z" fill="#2196F3"/>
<path d="M29.7587 12.2234H27.9478C28.0812 12.2234 28.1893 12.3315 28.1893 12.4648V15C28.1893 15.9489 28.1012 16.8766 27.9321 17.7766C26.6846 24.4459 21.0218 29.5608 14.0938 29.9729C14.3588 29.9886 14.6257 29.9977 14.8944 29.9996C22.2766 30.0505 28.4353 24.7673 29.743 17.7766C29.912 16.8766 30.0001 15.9489 30.0001 15V12.4648C30.0001 12.3315 29.892 12.2234 29.7587 12.2234Z" fill="#1E88E5"/>
<path d="M6.4198 11.0439L1.86426 7.7523C4.42 3.12979 9.34492 0 15.0003 0C19.0534 0 22.7308 1.60793 25.4308 4.2198C25.5283 4.31408 25.5308 4.46947 25.4349 4.56533L21.8483 8.15191C21.7561 8.24408 21.607 8.24695 21.5126 8.15707C19.818 6.54375 17.525 5.55334 15.0003 5.55334C11.1957 5.55334 7.91617 7.8024 6.4198 11.0439Z" fill="#F44336"/>
<path d="M5.10449 10.0937L6.41963 11.0439C7.78545 8.08524 10.6371 5.95442 14.0174 5.60491C14.0428 5.60215 14.0672 5.59881 14.0931 5.59635C13.7956 5.56811 13.4942 5.55334 13.1893 5.55334C9.75232 5.55334 6.75701 7.36524 5.10449 10.0937Z" fill="#E53935"/>
<path d="M23.62 4.2198C23.7175 4.31408 23.72 4.46947 23.6241 4.56539L20.713 7.4765C20.9919 7.68861 21.2588 7.91549 21.5122 8.15666C21.6067 8.24672 21.756 8.24432 21.8483 8.15197L25.4349 4.56539C25.5308 4.46947 25.5282 4.31414 25.4308 4.2198C22.7309 1.60793 19.0534 0 15.0003 0C14.6961 0 14.3944 0.0101367 14.0947 0.0280078C17.7885 0.248027 21.1225 1.80387 23.62 4.2198Z" fill="#E53935"/>
<path d="M26.0036 25.194C23.2644 28.1499 19.3481 30 15.0002 30C9.12758 30 4.04328 26.6252 1.58105 21.7086L6.23193 18.5215C7.62758 21.9942 11.0278 24.4467 15.0002 24.4467C17.4931 24.4467 19.7604 23.4809 21.4481 21.903L26.0036 25.194Z" fill="#4CAF50"/>
<path d="M6.2318 18.5215L4.86035 19.4613C6.45322 22.4288 9.58559 24.4467 13.1892 24.4467C13.4939 24.4467 13.7951 24.4317 14.0925 24.4035C10.5154 24.0625 7.5198 21.7266 6.2318 18.5215Z" fill="#43A047"/>
<path d="M14.9998 30C19.3477 30 23.264 28.1499 26.0033 25.194L24.8875 24.3879C22.3154 27.5889 18.4571 29.7124 14.0967 29.9727C14.3955 29.9905 14.6966 30 14.9998 30Z" fill="#43A047"/>
<path d="M5.55334 15C5.55334 16.2447 5.79416 17.4332 6.2318 18.5216L1.58086 21.7086C0.569238 19.6901 0 17.4115 0 15C0 12.3713 0.676055 9.9006 1.86398 7.75232L6.41953 11.0439C5.86359 12.2469 5.55334 13.5876 5.55334 15Z" fill="#FFC107"/>
<path d="M4.86009 19.4613L6.23153 18.5215C5.7939 17.4332 5.55307 16.2447 5.55307 15C5.55307 13.5875 5.86333 12.2469 6.41927 11.0439L5.10413 10.0937C4.25013 11.5037 3.75448 13.1583 3.74241 14.9345C3.73128 16.5724 4.13716 18.1147 4.86009 19.4613Z" fill="#FFB300"/>
</g>
<defs>
<clipPath id="clip0">
<rect width="30" height="30" fill="white"/>
</clipPath>
</defs>
</svg>
