<svg width="51" height="49" viewBox="0 0 51 49" fill="none" xmlns="http://www.w3.org/2000/svg">
<g clip-path="url(#clip0)">
<path d="M39.2003 8.43628C39.6008 8.43626 39.9973 8.51177 40.3668 8.65845C40.7363 8.80513 41.0716 9.02006 41.3532 9.29081C41.6349 9.56155 41.8572 9.88273 42.0074 10.2358C42.1577 10.5888 42.2328 10.9666 42.2284 11.3474C42.2157 12.1158 41.8891 12.8492 41.3178 13.3926C40.7465 13.9359 39.9753 14.2465 39.1674 14.2586C38.3556 14.2586 37.577 13.9519 37.003 13.4059C36.4289 12.86 36.1064 12.1195 36.1064 11.3474C36.1064 10.5754 36.4289 9.83489 37.003 9.28894C37.577 8.74299 38.3556 8.43628 39.1674 8.43628H39.2003Z" fill="#C4AE78"/>
<path d="M50.6873 12.1753C51.0658 15.9942 51.3127 34.0872 50.1278 38.2505C49.5507 40.7813 48.1547 43.0766 46.1358 44.8142C44.1169 46.5518 41.5765 47.6445 38.8713 47.9387C34.2013 48.3758 29.5089 48.5587 24.817 48.4865C20.0812 48.6158 15.3421 48.375 10.6476 47.7666C7.99446 47.2543 5.58109 45.9534 3.75599 44.0516C1.93088 42.1499 0.788481 39.7457 0.493723 37.1862C-0.197468 33.1012 -0.263296 14.0847 0.970973 9.96842C1.59369 7.51206 2.99177 5.29572 4.97747 3.61704C6.96318 1.93837 9.44142 0.87773 12.0794 0.577569C16.3241 0.122211 20.5954 -0.0712278 24.8664 -0.00153344C29.6225 -0.00153344 34.4279 0.123678 37.3079 0.264541C40.7767 0.343978 44.093 1.63677 46.6225 3.89567C49.0112 6.07992 50.4601 9.03118 50.6873 12.1753ZM45.7503 36.388C46.4453 28.4489 46.5553 20.4733 46.0794 12.5196C45.9741 10.5889 45.1495 8.75686 43.7534 7.35163C42.3572 5.9464 40.4807 5.05973 38.4598 4.8504C34.2256 4.48147 29.9736 4.32995 25.7222 4.39651C20.637 4.39651 15.5847 4.52173 13.363 4.7565C11.3216 4.87111 9.38737 5.66429 7.89836 6.99745C6.40936 8.3306 5.46025 10.119 5.21686 12.0501C4.51819 20.1941 4.45768 28.3763 5.03583 36.5289C5.20302 38.1541 5.90062 39.6889 7.0309 40.9183C8.16117 42.1476 9.6675 43.0098 11.3388 43.3842C15.8774 44.0058 20.4646 44.2467 25.0474 44.1041C30.3959 44.1041 35.6457 43.9476 37.6205 43.7442C39.6876 43.6483 41.6512 42.8552 43.1591 41.5071C44.667 40.1591 45.6206 38.3442 45.849 36.388" fill="#C4AE78"/>
<path d="M25.6068 11.8171C27.3265 11.8169 29.0291 12.1421 30.6155 12.7736C32.2018 13.4051 33.6403 14.3304 34.8471 15.4956C36.0539 16.6609 37.005 18.0427 37.6449 19.5608C38.2849 21.0789 38.601 22.7029 38.5748 24.3383C38.5488 27.6428 37.1502 30.8035 34.684 33.1314C32.2178 35.4593 28.884 36.7656 25.4093 36.7655C23.6889 36.7678 21.9853 36.4441 20.3979 35.8133C18.8105 35.1826 17.3712 34.2573 16.1639 33.0917C14.9567 31.926 14.0057 30.5433 13.3665 29.0243C12.7274 27.5052 12.4128 25.8803 12.4412 24.2444C12.4673 20.9398 13.8659 17.7791 16.3321 15.4512C18.7983 13.1233 22.1321 11.817 25.6068 11.8171ZM25.4257 32.2892C27.6586 32.2815 29.7999 31.4441 31.3926 29.9557C32.9853 28.4673 33.9032 26.4458 33.9504 24.3226C33.9901 22.2082 33.1459 20.1652 31.6031 18.6422C30.0603 17.1192 27.9452 16.2407 25.722 16.1995H25.6397C23.4068 16.2072 21.2655 17.0446 19.6728 18.533C18.0801 20.0215 17.1622 22.043 17.115 24.1661C17.0932 25.2201 17.2916 26.2678 17.6986 27.2484C18.1057 28.229 18.7134 29.123 19.4864 29.8785C20.2594 30.6341 21.1825 31.2363 22.202 31.6501C23.2215 32.0639 24.3173 32.2811 25.4257 32.2892Z" fill="#C4AE78"/>
</g>
<defs>
<clipPath id="clip0">
<rect width="51" height="48.4881" fill="white"/>
</clipPath>
</defs>
</svg>
