<svg width="44" height="44" viewBox="0 0 44 44" fill="none" xmlns="http://www.w3.org/2000/svg">
<path d="M22.0002 22C19.9835 22 18.3335 20.35 18.3335 18.3333C18.3335 16.3167 19.9835 14.6667 22.0002 14.6667C24.0168 14.6667 25.6668 16.3167 25.6668 18.3333C25.6668 20.35 24.0168 22 22.0002 22ZM33.0002 18.7C33.0002 12.045 28.1418 7.33332 22.0002 7.33332C15.8585 7.33332 11.0002 12.045 11.0002 18.7C11.0002 22.99 14.5752 28.6733 22.0002 35.4567C29.4252 28.6733 33.0002 22.99 33.0002 18.7ZM22.0002 3.66666C29.7002 3.66666 36.6668 9.56999 36.6668 18.7C36.6668 24.7867 31.7718 31.9917 22.0002 40.3333C12.2285 31.9917 7.3335 24.7867 7.3335 18.7C7.3335 9.56999 14.3002 3.66666 22.0002 3.66666Z" fill="#6F5B3E"/>
</svg>
