<svg width="44" height="44" viewBox="0 0 44 44" fill="none" xmlns="http://www.w3.org/2000/svg">
<path d="M28.4163 25.6667H26.968L26.4547 25.1717C28.6547 22.605 29.7913 19.1033 29.168 15.3817C28.3063 10.285 24.053 6.21499 18.9197 5.59165C11.1647 4.63832 4.63802 11.165 5.59135 18.92C6.21468 24.0533 10.2847 28.3067 15.3813 29.1683C19.103 29.7917 22.6047 28.655 25.1713 26.455L25.6663 26.9683V28.4167L33.458 36.2083C34.2097 36.96 35.438 36.96 36.1897 36.2083C36.9413 35.4567 36.9413 34.2283 36.1897 33.4767L28.4163 25.6667ZM17.4163 25.6667C12.8513 25.6667 9.16635 21.9817 9.16635 17.4167C9.16635 12.8517 12.8513 9.16665 17.4163 9.16665C21.9813 9.16665 25.6663 12.8517 25.6663 17.4167C25.6663 21.9817 21.9813 25.6667 17.4163 25.6667Z" fill="#6F5B3E"/>
</svg>
