<svg width="25" height="25" viewBox="0 0 25 25" fill="none" xmlns="http://www.w3.org/2000/svg">
<path d="M8.80024 15.1778C8.63906 14.8371 8.296 14.6198 7.91914 14.6198H0.999072C0.460791 14.6198 0.0244141 15.0562 0.0244141 15.5944V16.5692C0.0244141 17.1075 0.460791 17.5439 0.999072 17.5439C1.53735 17.5439 1.97373 17.1075 1.97373 16.5692L5.85825 16.5691L0.245752 23.407C0.00664063 23.6983 -0.0431152 24.1014 0.118018 24.442C0.27915 24.7828 0.622266 25 0.999072 25H7.77295C8.31123 25 8.74761 24.5636 8.74761 24.0253V23.0507C8.74761 22.5124 8.31123 22.076 7.77295 22.076C7.23467 22.076 6.79829 22.5124 6.79829 23.0507H3.06001L8.67256 16.2128C8.91167 15.9215 8.96142 15.5184 8.80024 15.1778Z" fill="#6F5B3E"/>
<path d="M18.9327 20.0536C19.4709 20.0536 19.9073 19.6172 19.9073 19.079V0.974658C19.9073 0.436377 19.471 0 18.9327 0C18.3944 0 17.958 0.436377 17.958 0.974658V19.079C17.958 19.6172 18.3944 20.0536 18.9327 20.0536Z" fill="#6F5B3E"/>
<path d="M24.6943 19.0764C24.316 18.6934 23.6989 18.6896 23.3159 19.0678L19.6261 22.7123C19.6247 22.7137 19.6232 22.7151 19.6218 22.7165C19.2418 23.0965 18.6234 23.0965 18.2438 22.7168L14.6026 19.0724C14.2222 18.6915 13.605 18.6912 13.2243 19.0717C12.8435 19.4521 12.8432 20.0693 13.2236 20.4501L16.865 24.0949C17.4351 24.6648 18.1839 24.9499 18.9326 24.9499C19.6804 24.9499 20.428 24.6657 20.9977 24.0973L24.6857 20.4547C25.0688 20.0764 25.0725 19.4593 24.6943 19.0764Z" fill="#6F5B3E"/>
<path d="M4.45913 0C2.01382 0 0.0244141 1.98936 0.0244141 4.43472V9.40547C0.0244141 9.94375 0.460791 10.3801 0.999072 10.3801C1.53735 10.3801 1.97373 9.94375 1.97373 9.40547V7.40742H6.94448V9.40547C6.94448 9.94375 7.38086 10.3801 7.91914 10.3801C8.45742 10.3801 8.8938 9.94375 8.8938 9.40547V4.43472C8.89385 1.98936 6.90444 0 4.45913 0ZM6.94453 5.45811H1.97373V4.43472C1.97373 3.06426 3.08867 1.94932 4.45913 1.94932C5.82954 1.94932 6.94453 3.06421 6.94453 4.43472V5.45811Z" fill="#6F5B3E"/>
</svg>
