<svg width="50" height="50" viewBox="0 0 50 50" fill="none" xmlns="http://www.w3.org/2000/svg">
<path d="M49.9911 16.6666H0V18.7499C0 19.855 0.438987 20.9148 1.22039 21.6962C2.00179 22.4776 3.0616 22.9166 4.16667 22.9166H10.4167C11.5217 22.9166 12.5815 22.4776 13.3629 21.6962C14.1443 20.9148 14.5833 19.855 14.5833 18.7499C14.5833 19.855 15.0223 20.9148 15.8037 21.6962C16.5851 22.4776 17.6449 22.9166 18.75 22.9166H31.25C32.3551 22.9166 33.4149 22.4776 34.1963 21.6962C34.9777 20.9148 35.4167 19.855 35.4167 18.7499C35.4167 19.855 35.8557 20.9148 36.6371 21.6962C37.4185 22.4776 38.4783 22.9166 39.5833 22.9166H45.8333C46.9384 22.9166 47.9982 22.4776 48.7796 21.6962C49.561 20.9148 50 19.855 50 18.7499V16.6666H49.9911Z" fill="#F9F6F0"/>
<path d="M49.4882 14.5833L45.7533 1.51042C45.6288 1.07522 45.366 0.692409 45.0046 0.41989C44.6432 0.147371 44.2028 -2.52424e-05 43.7502 3.24245e-09L34.208 3.24245e-09L37.1247 14.5833H49.4882Z" fill="#F9F6F0"/>
<path d="M15.7929 3.24245e-09H6.25072C5.79807 -2.52424e-05 5.35773 0.147371 4.99631 0.41989C4.6349 0.692409 4.37207 1.07522 4.24759 1.51042L0.512695 14.5833H12.8762L15.7929 3.24245e-09Z" fill="#F9F6F0"/>
<path d="M29.9594 0H20.0417L17.125 14.5833H32.876L29.9594 0Z" fill="#F9F6F0"/>
<path d="M39.584 25C38.0457 25.0012 36.5614 24.4329 35.4173 23.4047C34.2732 24.4329 32.7889 25.0012 31.2507 25H18.7507C17.2124 25.0012 15.7281 24.4329 14.584 23.4047C13.4399 24.4329 11.9556 25.0012 10.4173 25H4.16732C3.45713 24.9985 2.75247 24.8752 2.08398 24.6354V47.9166C2.08398 48.4692 2.30348 48.9991 2.69418 49.3898C3.08488 49.7805 3.61478 50 4.16732 50H8.33398V31.25C8.33398 30.6974 8.55348 30.1675 8.94418 29.7768C9.33488 29.3861 9.86478 29.1666 10.4173 29.1666H20.834C21.3865 29.1666 21.9164 29.3861 22.3071 29.7768C22.6978 30.1675 22.9173 30.6974 22.9173 31.25V50H45.834C46.3865 50 46.9164 49.7805 47.3071 49.3898C47.6978 48.9991 47.9173 48.4692 47.9173 47.9166V24.6354C47.2488 24.8752 46.5442 24.9985 45.834 25H39.584ZM41.6673 37.5C41.6673 38.0525 41.4478 38.5824 41.0571 38.9731C40.6664 39.3638 40.1365 39.5833 39.584 39.5833H29.1673C28.6148 39.5833 28.0849 39.3638 27.6942 38.9731C27.3035 38.5824 27.084 38.0525 27.084 37.5V31.25C27.084 30.6974 27.3035 30.1675 27.6942 29.7768C28.0849 29.3861 28.6148 29.1666 29.1673 29.1666H39.584C40.1365 29.1666 40.6664 29.3861 41.0571 29.7768C41.4478 30.1675 41.6673 30.6974 41.6673 31.25V37.5Z" fill="#F9F6F0"/>
</svg>
