<svg width="51" height="49" viewBox="0 0 51 49" fill="none" xmlns="http://www.w3.org/2000/svg">
<g clip-path="url(#clip0)">
<path d="M48 0H3C1.34315 0 0 1.34315 0 3V45.4881C0 47.1449 1.34315 48.4881 3 48.4881H48C49.6569 48.4881 51 47.1449 51 45.4881V3C51 1.34315 49.6569 0 48 0Z" fill="#C4AE78"/>
<path d="M6.75652 35.9431C10.1507 37.9897 14.1769 39.1741 18.4929 39.1741C30.618 39.1741 40.447 29.8282 40.447 18.3013C40.447 18.0135 40.4406 17.7278 40.429 17.443C40.8676 17.1149 43.58 15.0479 44.2448 13.7192C44.2448 13.7192 42.0422 14.5895 39.8864 14.7945C39.8821 14.7945 39.8769 14.7955 39.8726 14.7955C39.8726 14.7955 39.8769 14.7934 39.8842 14.7884C40.0829 14.6623 42.86 12.8649 43.236 10.7234C43.236 10.7234 41.678 11.514 39.4966 12.2057C39.1355 12.3197 38.7574 12.4319 38.3677 12.5358C36.9615 11.109 34.9629 10.2185 32.7443 10.2185C28.4887 10.2185 25.0404 13.496 25.0404 17.5389C25.0404 18.1094 25.1095 18.6647 25.24 19.1978C24.6454 19.1746 15.5894 18.6919 9.42866 11.5987C9.42866 11.5987 5.74666 16.3777 11.6228 21.2919C11.6228 21.2919 9.83657 21.2242 8.29548 20.3488C8.29548 20.3488 7.72945 26.1385 14.3841 27.6188C14.3841 27.6188 13.0746 28.0903 10.9856 27.7541C10.9856 27.7541 12.1538 32.4321 18.0662 32.8693C18.0662 32.8693 13.391 36.8847 6.75439 35.9426L6.75652 35.9431Z" fill="white"/>
</g>
<defs>
<clipPath id="clip0">
<rect width="51" height="48.4881" fill="white"/>
</clipPath>
</defs>
</svg>
