<svg width="44" height="44" viewBox="0 0 44 44" fill="none" xmlns="http://www.w3.org/2000/svg">
<path d="M22.0002 11C24.0168 11 25.6668 12.65 25.6668 14.6667C25.6668 16.6833 24.0168 18.3333 22.0002 18.3333C19.9835 18.3333 18.3335 16.6833 18.3335 14.6667C18.3335 12.65 19.9835 11 22.0002 11ZM22.0002 29.3333C26.9502 29.3333 32.6335 31.6983 33.0002 33H11.0002C11.4218 31.68 17.0685 29.3333 22.0002 29.3333ZM22.0002 7.33334C17.9485 7.33334 14.6668 10.615 14.6668 14.6667C14.6668 18.7183 17.9485 22 22.0002 22C26.0518 22 29.3335 18.7183 29.3335 14.6667C29.3335 10.615 26.0518 7.33334 22.0002 7.33334ZM22.0002 25.6667C17.1052 25.6667 7.3335 28.1233 7.3335 33V36.6667H36.6668V33C36.6668 28.1233 26.8952 25.6667 22.0002 25.6667Z" fill="#6F5B3E"/>
</svg>
